<svg xmlns="http://www.w3.org/2000/svg" viewBox="0 0 30 20">
  <rect width="30" height="20" fill="#B22234"/>
  <rect y="1.54" width="30" height="1.54" fill="#fff"/>
  <rect y="4.61" width="30" height="1.54" fill="#fff"/>
  <rect y="7.69" width="30" height="1.54" fill="#fff"/>
  <rect y="10.77" width="30" height="1.54" fill="#fff"/>
  <rect y="13.85" width="30" height="1.54" fill="#fff"/>
  <rect y="16.92" width="30" height="1.54" fill="#fff"/>
  <rect width="12" height="10.77" fill="#3C3B6E"/>
  <g fill="#fff" font-size="1.8" text-anchor="middle">
    <text x="1.5" y="2.2">★</text><text x="3.5" y="2.2">★</text><text x="5.5" y="2.2">★</text><text x="7.5" y="2.2">★</text><text x="9.5" y="2.2">★</text>
    <text x="2.5" y="3.8">★</text><text x="4.5" y="3.8">★</text><text x="6.5" y="3.8">★</text><text x="8.5" y="3.8">★</text>
    <text x="1.5" y="5.4">★</text><text x="3.5" y="5.4">★</text><text x="5.5" y="5.4">★</text><text x="7.5" y="5.4">★</text><text x="9.5" y="5.4">★</text>
    <text x="2.5" y="7">★</text><text x="4.5" y="7">★</text><text x="6.5" y="7">★</text><text x="8.5" y="7">★</text>
    <text x="1.5" y="8.6">★</text><text x="3.5" y="8.6">★</text><text x="5.5" y="8.6">★</text><text x="7.5" y="8.6">★</text><text x="9.5" y="8.6">★</text>
    <text x="2.5" y="10.2">★</text><text x="4.5" y="10.2">★</text><text x="6.5" y="10.2">★</text><text x="8.5" y="10.2">★</text>
  </g>
</svg>
